# Blender v3.1.2 OBJ File: 'ya.blend'
# www.blender.org
o Cube.001_Cube.004
v -0.420000 -1.000000 -0.420000
v -0.500000 -0.920000 -0.420000
v -0.420000 -0.920000 -0.500000
v -0.476569 -0.976569 -0.420000
v -0.466188 -0.966188 -0.466188
v -0.476569 -0.920000 -0.476569
v -0.420000 -0.976569 -0.476569
v -0.500000 0.920000 -0.420000
v -0.420000 1.000000 -0.420000
v -0.420000 0.920000 -0.500000
v -0.476569 0.976569 -0.420000
v -0.466188 0.966188 -0.466188
v -0.420000 0.976569 -0.476569
v -0.476569 0.920000 -0.476569
v 0.420000 -1.000000 -0.420000
v 0.420000 -0.920000 -0.500000
v 0.500000 -0.920000 -0.420000
v 0.420000 -0.976569 -0.476569
v 0.466188 -0.966188 -0.466188
v 0.476569 -0.920000 -0.476569
v 0.476569 -0.976569 -0.420000
v 0.420000 1.000000 -0.420000
v 0.500000 0.920000 -0.420000
v 0.420000 0.920000 -0.500000
v 0.476569 0.976569 -0.420000
v 0.466188 0.966188 -0.466188
v 0.476569 0.920000 -0.476569
v 0.420000 0.976569 -0.476569
v -0.420000 -1.000000 0.420000
v -0.420000 -0.920000 0.500000
v -0.500000 -0.920000 0.420000
v -0.420000 -0.976569 0.476568
v -0.466188 -0.966188 0.466188
v -0.476569 -0.920000 0.476568
v -0.476569 -0.976569 0.420000
v -0.420000 1.000000 0.420000
v -0.500000 0.920000 0.420000
v -0.420000 0.920000 0.500000
v -0.476569 0.976569 0.420000
v -0.466188 0.966188 0.466188
v -0.476569 0.920000 0.476568
v -0.420000 0.976569 0.476568
v 0.420000 -1.000000 0.420000
v 0.500000 -0.920000 0.420000
v 0.420000 -0.920000 0.500000
v 0.476569 -0.976569 0.420000
v 0.466188 -0.966188 0.466188
v 0.476569 -0.920000 0.476569
v 0.420000 -0.976569 0.476569
v 0.420000 1.000000 0.420000
v 0.420000 0.920000 0.500000
v 0.500000 0.920000 0.420000
v 0.420000 0.976569 0.476569
v 0.466188 0.966188 0.466188
v 0.476569 0.920000 0.476569
v 0.476569 0.976569 0.420000
vt 0.964889 0.094675
vt 0.964889 0.235446
vt 0.874427 0.235446
vt 0.874427 0.094675
vt 0.626427 0.094675
vt 0.626427 0.235446
vt 0.535966 0.235446
vt 0.535966 0.094675
vt 0.626427 0.251253
vt 0.626427 0.315012
vt 0.535966 0.315012
vt 0.535966 0.251253
vt 0.852068 0.094675
vt 0.852068 0.235446
vt 0.761607 0.235446
vt 0.761607 0.094675
vt 0.739248 0.094675
vt 0.739248 0.235446
vt 0.648786 0.235446
vt 0.648786 0.094675
vt 0.535993 0.015108
vt 0.527350 0.015108
vt 0.527350 0.011603
vt 0.535966 0.009036
vt 0.865812 0.094675
vt 0.865812 0.091141
vt 0.874427 0.088554
vt 0.852068 0.088554
vt 0.857042 0.088554
vt 0.860684 0.094675
vt 0.874427 0.241566
vt 0.869453 0.241566
vt 0.865812 0.235446
vt 0.535966 0.321084
vt 0.530992 0.321084
vt 0.527350 0.315012
vt 0.860684 0.235446
vt 0.860684 0.238979
vt 0.852068 0.241566
vt 0.626536 0.015108
vt 0.626427 0.009036
vt 0.631401 0.009036
vt 0.635179 0.015108
vt 0.752991 0.094675
vt 0.752991 0.091141
vt 0.761607 0.088554
vt 0.739248 0.088554
vt 0.744222 0.088554
vt 0.747863 0.094675
vt 0.635043 0.315012
vt 0.635043 0.318518
vt 0.626427 0.321084
vt 0.747863 0.235446
vt 0.747863 0.238979
vt 0.739248 0.241566
vt 0.761607 0.241566
vt 0.756633 0.241566
vt 0.752991 0.235446
vt 0.536075 0.078867
vt 0.536103 0.084940
vt 0.531049 0.084940
vt 0.527350 0.078867
vt 0.527350 0.094675
vt 0.527350 0.091141
vt 0.535966 0.088554
vt 0.964889 0.088554
vt 0.969863 0.088554
vt 0.973504 0.094675
vt 0.527350 0.251253
vt 0.527350 0.247747
vt 0.535966 0.245181
vt 0.973504 0.235446
vt 0.973504 0.238979
vt 0.964889 0.241566
vt 0.535966 0.241566
vt 0.530992 0.241566
vt 0.527350 0.235446
vt 0.627891 0.078867
vt 0.636615 0.078867
vt 0.636694 0.082373
vt 0.628000 0.084940
vt 0.640171 0.094675
vt 0.640171 0.091141
vt 0.648786 0.088554
vt 0.626427 0.088554
vt 0.631401 0.088554
vt 0.635043 0.094675
vt 0.626427 0.245181
vt 0.631401 0.245181
vt 0.635043 0.251253
vt 0.635043 0.235446
vt 0.635043 0.238979
vt 0.626427 0.241566
vt 0.648786 0.241566
vt 0.643812 0.241566
vt 0.640171 0.235446
vn -0.9673 -0.1794 0.1794
vn -0.9673 0.1794 0.1794
vn -0.9673 0.1794 -0.1794
vn -0.9673 -0.1794 -0.1794
vn 0.1794 -0.1794 0.9673
vn 0.1794 0.1794 0.9673
vn -0.1794 0.1794 0.9673
vn -0.1794 -0.1794 0.9673
vn 0.1794 0.9673 0.1794
vn 0.1794 0.9673 -0.1794
vn -0.1794 0.9673 -0.1794
vn -0.1794 0.9673 0.1794
vn -0.1794 -0.1794 -0.9673
vn -0.1794 0.1794 -0.9673
vn 0.1794 0.1794 -0.9673
vn 0.1794 -0.1794 -0.9673
vn 0.9673 -0.1794 -0.1794
vn 0.9673 0.1794 -0.1794
vn 0.9673 0.1794 0.1794
vn 0.9673 -0.1794 0.1794
vn -0.1794 -0.9673 -0.1794
vn -0.6965 -0.6965 -0.1726
vn -0.5774 -0.5774 -0.5774
vn -0.1726 -0.6965 -0.6965
vn -0.6965 -0.1726 -0.6965
vn -0.6965 0.6965 -0.1726
vn -0.5774 0.5774 -0.5774
vn -0.6965 0.1726 -0.6965
vn -0.1726 0.6965 -0.6965
vn 0.1794 -0.9673 -0.1794
vn 0.1726 -0.6965 -0.6965
vn 0.5774 -0.5774 -0.5773
vn 0.6965 -0.6965 -0.1726
vn 0.6965 -0.1726 -0.6965
vn 0.6965 0.6965 -0.1726
vn 0.5774 0.5774 -0.5773
vn 0.1726 0.6965 -0.6965
vn 0.6965 0.1726 -0.6965
vn -0.1794 -0.9673 0.1794
vn -0.1726 -0.6965 0.6965
vn -0.5774 -0.5774 0.5773
vn -0.6965 -0.6965 0.1726
vn -0.6965 -0.1726 0.6965
vn -0.6965 0.6965 0.1726
vn -0.5774 0.5774 0.5773
vn -0.1726 0.6965 0.6965
vn -0.6965 0.1726 0.6965
vn 0.1794 -0.9673 0.1794
vn 0.6965 -0.6965 0.1726
vn 0.5774 -0.5774 0.5774
vn 0.1726 -0.6965 0.6965
vn 0.6965 -0.1726 0.6965
vn 0.1726 0.6965 0.6965
vn 0.5774 0.5774 0.5774
vn 0.6965 0.6965 0.1726
vn 0.6965 0.1726 0.6965
s 1
f 31/1/1 37/2/2 8/3/3 2/4/4
f 45/5/5 51/6/6 38/7/7 30/8/8
f 50/9/9 22/10/10 9/11/11 36/12/12
f 3/13/13 10/14/14 24/15/15 16/16/16
f 17/17/17 23/18/18 52/19/19 44/20/20
f 1/21/21 4/22/22 5/23/23 7/24/24
f 2/4/4 6/25/25 5/26/23 4/27/22
f 3/13/13 7/28/24 5/29/23 6/30/25
f 8/3/3 11/31/26 12/32/27 14/33/28
f 9/11/11 13/34/29 12/35/27 11/36/26
f 10/14/14 14/37/28 12/38/27 13/39/29
f 15/40/30 18/41/31 19/42/32 21/43/33
f 16/16/16 20/44/34 19/45/32 18/46/31
f 17/17/17 21/47/33 19/48/32 20/49/34
f 22/10/10 25/50/35 26/51/36 28/52/37
f 23/18/18 27/53/38 26/54/36 25/55/35
f 24/15/15 28/56/37 26/57/36 27/58/38
f 29/59/39 32/60/40 33/61/41 35/62/42
f 30/8/8 34/63/43 33/64/41 32/65/40
f 31/1/1 35/66/42 33/67/41 34/68/43
f 36/12/12 39/69/44 40/70/45 42/71/46
f 37/2/2 41/72/47 40/73/45 39/74/44
f 38/7/7 42/75/46 40/76/45 41/77/47
f 43/78/48 46/79/49 47/80/50 49/81/51
f 44/20/20 48/82/52 47/83/50 46/84/49
f 45/5/5 49/85/51 47/86/50 48/87/52
f 50/9/9 53/88/53 54/89/54 56/90/55
f 51/6/6 55/91/56 54/92/54 53/93/53
f 52/19/19 56/94/55 54/95/54 55/96/56
f 15/40/30 1/21/21 7/24/24 18/41/31
f 18/46/31 7/28/24 3/13/13 16/16/16
f 2/4/4 8/3/3 14/33/28 6/25/25
f 6/30/25 14/37/28 10/14/14 3/13/13
f 9/11/11 22/10/10 28/52/37 13/34/29
f 13/39/29 28/56/37 24/15/15 10/14/14
f 23/18/18 17/17/17 20/49/34 27/53/38
f 27/58/38 20/44/34 16/16/16 24/15/15
f 43/78/48 15/40/30 21/43/33 46/79/49
f 46/84/49 21/47/33 17/17/17 44/20/20
f 22/10/10 50/9/9 56/90/55 25/50/35
f 25/55/35 56/94/55 52/19/19 23/18/18
f 51/6/6 45/5/5 48/87/52 55/91/56
f 55/96/56 48/82/52 44/20/20 52/19/19
f 29/59/39 43/78/48 49/81/51 32/60/40
f 32/65/40 49/85/51 45/5/5 30/8/8
f 50/9/9 36/12/12 42/71/46 53/88/53
f 53/93/53 42/75/46 38/7/7 51/6/6
f 37/2/2 31/1/1 34/68/43 41/72/47
f 41/77/47 34/63/43 30/8/8 38/7/7
f 1/21/21 29/59/39 35/62/42 4/22/22
f 4/27/22 35/66/42 31/1/1 2/4/4
f 36/12/12 9/11/11 11/36/26 39/69/44
f 39/74/44 11/31/26 8/3/3 37/2/2
f 15/40/30 43/78/48 29/59/39 1/21/21
